<?xml version="1.0" standalone="no"?>
<!DOCTYPE svg PUBLIC "-//W3C//DTD SVG 20010904//EN"
 "http://www.w3.org/TR/2001/REC-SVG-20010904/DTD/svg10.dtd">
<svg version="1.0" xmlns="http://www.w3.org/2000/svg"
 width="1168.000000pt" height="1168.000000pt" viewBox="0 0 1168.000000 1168.000000"
 preserveAspectRatio="xMidYMid meet">
<metadata>
Created by potrace 1.14, written by Peter Selinger 2001-2017
</metadata>
<g transform="translate(0.000000,1168.000000) scale(0.100000,-0.100000)"
fill="#000000" stroke="none">
<path d="M3569 10256 c-2 -2 -35 -7 -74 -10 -38 -3 -80 -8 -91 -10 -12 -2 -39
-7 -60 -10 -22 -4 -84 -18 -139 -32 -55 -14 -107 -27 -115 -29 -132 -29 -537
-224 -617 -298 -13 -11 -23 -17 -23 -12 0 5 -6 2 -12 -6 -7 -8 -40 -35 -73
-60 -85 -62 -107 -83 -210 -184 -98 -97 -204 -218 -251 -287 -16 -24 -35 -49
-41 -56 -7 -7 -13 -17 -13 -22 0 -5 -6 -15 -13 -22 -25 -26 -122 -207 -176
-328 -36 -81 -89 -226 -94 -256 -1 -11 -5 -23 -8 -29 -6 -10 -25 -88 -33 -135
-3 -14 -5 -25 -6 -25 -2 0 -10 -38 -14 -70 -3 -16 -5 -30 -6 -30 -1 0 -3 -16
-5 -35 -2 -19 -6 -62 -11 -95 -10 -78 -10 -371 1 -460 4 -38 9 -83 11 -100 1
-16 3 -30 4 -30 1 0 3 -12 4 -26 2 -15 8 -46 14 -70 7 -24 13 -55 15 -69 1
-14 5 -29 8 -35 6 -9 18 -52 25 -82 6 -33 48 -150 57 -161 5 -7 7 -15 3 -19
-3 -3 0 -13 8 -22 8 -9 14 -18 13 -21 -4 -16 134 -290 160 -318 6 -6 15 -21
18 -32 3 -11 10 -20 15 -20 5 0 11 -9 15 -19 5 -17 26 -46 102 -146 75 -98
228 -256 324 -335 29 -24 56 -48 57 -52 2 -5 10 -8 17 -8 7 0 15 -3 17 -7 8
-19 181 -137 256 -174 23 -12 42 -25 42 -30 0 -5 3 -8 8 -7 4 2 39 -13 79 -32
l72 -35 -2 -1329 -2 -1330 -1005 -2 c-553 -1 -1018 -4 -1035 -7 -101 -19 -204
-49 -230 -67 -5 -4 -21 -11 -35 -15 -75 -23 -257 -172 -330 -270 -16 -22 -34
-45 -39 -51 -5 -6 -19 -31 -31 -55 -13 -24 -25 -46 -29 -49 -3 -3 -7 -9 -8
-15 -1 -5 -14 -40 -27 -77 -42 -112 -54 -191 -50 -328 2 -69 6 -136 8 -150 3
-14 7 -32 8 -40 2 -8 7 -21 11 -27 5 -7 6 -17 2 -22 -3 -5 -1 -12 5 -16 5 -3
10 -13 10 -20 0 -25 60 -147 105 -215 108 -161 265 -286 448 -354 37 -14 67
-23 67 -20 0 2 9 0 19 -5 10 -6 41 -14 68 -18 59 -10 8770 -11 8799 -1 12 3
38 9 59 12 20 4 41 9 46 12 5 3 19 7 31 9 24 5 209 93 218 104 3 4 28 23 55
43 76 55 168 156 222 245 40 65 106 211 102 226 -1 1 4 20 9 42 6 22 14 60 18
85 4 25 8 866 9 1870 1 1004 3 1828 4 1832 1 8 113 62 124 60 4 -1 7 1 7 6 0
4 15 14 33 21 17 8 43 22 57 31 14 9 66 43 115 76 50 32 119 81 155 109 96 75
360 341 360 364 0 4 9 13 20 21 11 8 20 20 20 26 0 7 4 14 8 16 11 4 97 132
93 137 -1 2 2 7 8 11 23 14 142 246 193 375 29 73 80 222 83 245 8 44 30 129
37 144 8 14 7 17 -3 11 -8 -5 -10 -4 -5 3 11 18 17 52 33 177 9 72 9 451 0
515 -11 72 -19 124 -23 145 -2 11 -7 34 -10 50 -3 17 -12 55 -20 85 -8 30 -17
66 -20 80 -7 33 -61 186 -79 227 -8 17 -15 34 -15 37 0 10 -115 237 -143 281
-40 64 -94 144 -114 170 -13 17 -27 35 -31 40 -54 73 -85 109 -197 221 -124
125 -263 244 -284 244 -5 0 -11 4 -13 8 -4 11 -94 72 -106 72 -6 0 -12 4 -14
8 -3 9 -155 95 -220 125 -35 16 -54 24 -140 61 -18 8 -44 17 -58 21 -14 3 -34
10 -45 15 -28 12 -108 36 -180 54 -59 15 -73 18 -145 30 -19 3 -48 8 -65 12
-164 30 -568 25 -730 -9 -11 -2 -36 -7 -55 -11 -110 -20 -306 -77 -395 -116
-77 -33 -251 -116 -255 -121 -3 -3 -20 -14 -38 -23 -63 -32 -183 -112 -249
-166 -6 -5 -38 -31 -70 -56 -91 -73 -290 -279 -343 -355 -13 -19 -27 -36 -30
-39 -8 -6 -116 -170 -142 -215 -17 -28 -119 -236 -139 -280 -29 -68 -89 -251
-104 -320 -49 -224 -59 -316 -60 -535 0 -175 6 -260 26 -356 5 -28 9 -55 8
-60 -1 -5 0 -11 1 -14 1 -3 3 -12 5 -21 11 -57 58 -236 65 -244 4 -5 10 -23
14 -40 10 -42 51 -145 96 -240 37 -78 118 -225 129 -235 4 -3 12 -17 20 -32 8
-15 22 -37 33 -47 10 -11 18 -23 18 -27 0 -5 49 -72 75 -100 5 -7 26 -31 45
-55 19 -24 71 -80 115 -124 68 -70 118 -114 252 -225 12 -10 32 -24 44 -31 13
-7 29 -18 36 -24 20 -21 244 -151 310 -181 l61 -28 0 -1315 c0 -724 -1 -1323
-4 -1331 -3 -13 -223 -15 -1906 -13 -1047 0 -1905 1 -1908 2 -4 1 -5 2631 -1
2652 0 3 47 29 104 58 122 62 122 62 220 126 42 27 77 53 77 57 0 4 5 8 10 8
21 0 135 97 260 220 128 126 200 211 280 330 25 36 47 67 50 70 3 3 12 19 20
35 8 17 18 32 21 35 11 9 98 180 92 180 -3 0 1 8 10 18 8 9 16 19 16 22 0 5 8
27 41 110 20 50 50 139 56 165 1 6 8 30 15 55 7 25 13 50 14 55 0 6 3 15 6 20
4 6 10 33 14 60 5 28 10 57 12 65 1 8 5 30 8 49 2 18 7 52 11 75 8 54 13 147
14 276 1 164 -9 272 -45 458 -17 87 -80 305 -94 327 -4 6 -13 28 -20 50 -29
86 -120 261 -205 395 -48 77 -40 65 -118 165 -172 218 -399 420 -628 555 -67
40 -272 142 -320 159 -19 7 -44 17 -55 21 -95 40 -294 91 -450 115 -22 4 -53
9 -70 12 -38 6 -441 14 -446 9z m261 -1842 c25 -4 48 -7 53 -6 4 1 7 -2 7 -8
0 -5 11 -10 25 -10 14 0 25 -3 25 -8 0 -4 14 -13 30 -21 17 -7 55 -37 84 -66
172 -169 173 -449 1 -619 -48 -47 -130 -97 -180 -110 -67 -18 -129 -21 -200
-12 -60 7 -151 48 -195 86 -14 12 -30 25 -35 28 -35 23 -100 135 -125 215 -12
40 -11 195 2 203 4 3 8 13 8 23 0 19 47 118 67 141 45 50 89 90 112 101 14 8
28 17 31 20 11 12 97 41 140 46 25 3 47 7 49 9 4 4 18 2 101 -12z m5665 0
c135 -21 284 -154 327 -289 78 -248 -68 -509 -316 -565 -51 -11 -148 -15 -181
-7 -189 47 -311 171 -351 357 -14 60 -5 147 22 227 49 142 194 261 344 280 25
3 47 7 49 9 3 3 39 -1 106 -12z"/>
</g>
</svg>
